<svg width="46" height="46" viewBox="0 0 46 46" fill="none" xmlns="http://www.w3.org/2000/svg">
<path d="M23.1453 11.8758C20.9809 11.8758 18.8652 12.5176 17.0657 13.72C15.2661 14.9225 13.8635 16.6315 13.0353 18.6311C12.207 20.6306 11.9903 22.8309 12.4126 24.9536C12.8348 27.0764 13.877 29.0262 15.4074 30.5566C16.9378 32.087 18.8877 33.1292 21.0104 33.5515C23.1331 33.9737 25.3334 33.757 27.3329 32.9288C29.3325 32.1005 31.0416 30.6979 32.244 28.8984C33.4464 27.0988 34.0882 24.9831 34.0882 22.8188C34.0882 19.9165 32.9353 17.1331 30.8831 15.0809C28.8309 13.0287 26.0475 11.8758 23.1453 11.8758ZM23.1453 30.1141C21.7024 30.1141 20.2919 29.6862 19.0922 28.8846C17.8925 28.083 16.9574 26.9436 16.4053 25.6106C15.8531 24.2775 15.7086 22.8107 15.9901 21.3955C16.2716 19.9804 16.9664 18.6805 17.9867 17.6602C19.007 16.6399 20.3069 15.9451 21.722 15.6636C23.1372 15.3822 24.604 15.5266 25.937 16.0788C27.2701 16.631 28.4095 17.566 29.2111 18.7657C30.0127 19.9654 30.4406 21.3759 30.4406 22.8188C30.4345 24.7518 29.664 26.6039 28.2972 27.9707C26.9303 29.3375 25.0782 30.1081 23.1453 30.1141ZM33.1763 0.0209351H13.1142C9.72824 0.0209351 6.48096 1.366 4.08672 3.76024C1.69248 6.15448 0.347412 9.40176 0.347412 12.7877V32.8498C0.347412 36.2358 1.69248 39.4831 4.08672 41.8773C6.48096 44.2715 9.72824 45.6166 13.1142 45.6166H33.1763C36.5623 45.6166 39.8095 44.2715 42.2038 41.8773C44.598 39.4831 45.9431 36.2358 45.9431 32.8498V12.7877C45.9431 9.40176 44.598 6.15448 42.2038 3.76024C39.8095 1.366 36.5623 0.0209351 33.1763 0.0209351ZM42.2954 32.8498C42.2954 34.0474 42.0596 35.2332 41.6013 36.3396C41.143 37.4459 40.4713 38.4512 39.6245 39.298C38.7777 40.1448 37.7724 40.8165 36.666 41.2748C35.5597 41.7331 34.3738 41.969 33.1763 41.969H13.1142C11.9167 41.969 10.7308 41.7331 9.62446 41.2748C8.51808 40.8165 7.51279 40.1448 6.666 39.298C5.81921 38.4512 5.1475 37.4459 4.68922 36.3396C4.23094 35.2332 3.99507 34.0474 3.99507 32.8498V12.7877C3.99507 10.3692 4.95583 8.04969 6.666 6.33952C8.37617 4.62935 10.6957 3.66859 13.1142 3.66859H33.1763C34.3738 3.66859 35.5597 3.90446 36.666 4.36274C37.7724 4.82102 38.7777 5.49273 39.6245 6.33952C40.4713 7.18631 41.143 8.1916 41.6013 9.29798C42.0596 10.4044 42.2954 11.5902 42.2954 12.7877V32.8498ZM37.7359 10.9639C37.7359 11.505 37.5754 12.0339 37.2748 12.4838C36.9742 12.9337 36.5469 13.2843 36.047 13.4914C35.5472 13.6985 34.9971 13.7526 34.4664 13.6471C33.9357 13.5415 33.4483 13.281 33.0657 12.8984C32.6831 12.5158 32.4225 12.0283 32.317 11.4976C32.2114 10.9669 32.2656 10.4169 32.4726 9.91698C32.6797 9.41708 33.0303 8.98982 33.4802 8.68921C33.9301 8.3886 34.459 8.22816 35.0001 8.22816C35.7257 8.22816 36.4215 8.51639 36.9346 9.02944C37.4476 9.54249 37.7359 10.2383 37.7359 10.9639Z" fill="black"/>
</svg>
