<svg width="52" height="42" viewBox="0 0 52 42" fill="none" xmlns="http://www.w3.org/2000/svg">
<path d="M51.1219 5.49336C49.2494 6.34448 47.231 6.90379 45.1397 7.17128C47.2797 5.88244 48.9333 3.83976 49.7115 1.38367C47.6931 2.59955 45.4559 3.45067 43.097 3.93703C41.1759 1.84571 38.4767 0.629822 35.4127 0.629822C29.698 0.629822 25.029 5.29882 25.029 11.0621C25.029 11.8889 25.1263 12.6914 25.2965 13.4452C16.6394 13.0075 8.93068 8.8492 3.79965 2.55092C2.8999 4.08293 2.38923 5.88244 2.38923 7.77922C2.38923 11.4026 4.21305 14.6125 7.0339 16.4363C5.30735 16.4363 3.70238 15.95 2.29195 15.2204V15.2934C2.29195 20.3515 5.89097 24.5828 10.6572 25.5311C9.12699 25.9499 7.52049 26.0082 5.96393 25.7014C6.62441 27.7744 7.91794 29.5883 9.66269 30.8882C11.4074 32.188 13.5157 32.9084 15.691 32.948C12.0035 35.8672 7.43271 37.4451 2.72967 37.4225C1.90287 37.4225 1.07607 37.3739 0.249268 37.2766C4.86963 40.2433 10.3654 41.9699 16.2503 41.9699C35.4127 41.9699 45.9422 26.0661 45.9422 12.278C45.9422 11.816 45.9422 11.3782 45.9179 10.9162C47.9606 9.45714 49.7115 7.609 51.1219 5.49336Z" fill="black"/>
</svg>
