<svg width="137" height="36" viewBox="0 0 137 36" fill="none" xmlns="http://www.w3.org/2000/svg">
<path d="M25.75 35L23.65 28.7H9.7L7.6 35H0.15L12.4 -2.38419e-06H20.95L33.25 35H25.75ZM11.9 22.25H21.5L16.7 7.95L11.9 22.25ZM42.7984 14.3C43.3984 12.7 44.3818 11.5 45.7484 10.7C47.1484 9.9 48.6984 9.5 50.3984 9.5V16.7C48.4318 16.4667 46.6651 16.8667 45.0984 17.9C43.5651 18.9333 42.7984 20.65 42.7984 23.05V35H36.3484V10H42.7984V14.3ZM58.693 25.15C59.5596 28.2833 61.9096 29.85 65.743 29.85C68.2096 29.85 70.0763 29.0167 71.343 27.35L76.543 30.35C74.0763 33.9167 70.443 35.7 65.643 35.7C61.5096 35.7 58.193 34.45 55.693 31.95C53.193 29.45 51.943 26.3 51.943 22.5C51.943 18.7333 53.1763 15.6 55.643 13.1C58.1096 10.5667 61.2763 9.3 65.143 9.3C68.8096 9.3 71.8263 10.5667 74.193 13.1C76.593 15.6333 77.793 18.7667 77.793 22.5C77.793 23.3333 77.7096 24.2167 77.543 25.15H58.693ZM58.593 20.15H71.343C70.9763 18.45 70.2096 17.1833 69.043 16.35C67.9096 15.5167 66.6096 15.1 65.143 15.1C63.4096 15.1 61.9763 15.55 60.843 16.45C59.7096 17.3167 58.9596 18.55 58.593 20.15ZM96.1957 9.3C98.929 9.3 101.179 10.2167 102.946 12.05C104.746 13.8833 105.646 16.4167 105.646 19.65V35H99.1957V20.45C99.1957 18.7833 98.7457 17.5167 97.8457 16.65C96.9457 15.75 95.7457 15.3 94.2457 15.3C92.579 15.3 91.2457 15.8167 90.2457 16.85C89.2457 17.8833 88.7457 19.4333 88.7457 21.5V35H82.2957V10H88.7457V12.8C90.3124 10.4667 92.7957 9.3 96.1957 9.3ZM130.153 10H136.603V35H130.153V32.05C128.22 34.4833 125.503 35.7 122.003 35.7C118.67 35.7 115.803 34.4333 113.403 31.9C111.036 29.3333 109.853 26.2 109.853 22.5C109.853 18.8 111.036 15.6833 113.403 13.15C115.803 10.5833 118.67 9.3 122.003 9.3C125.503 9.3 128.22 10.5167 130.153 12.95V10ZM118.253 27.6C119.553 28.9 121.203 29.55 123.203 29.55C125.203 29.55 126.853 28.9 128.153 27.6C129.486 26.2667 130.153 24.5667 130.153 22.5C130.153 20.4333 129.486 18.75 128.153 17.45C126.853 16.1167 125.203 15.45 123.203 15.45C121.203 15.45 119.553 16.1167 118.253 17.45C116.953 18.75 116.303 20.4333 116.303 22.5C116.303 24.5667 116.953 26.2667 118.253 27.6Z" fill="#434242"/>
</svg>
