<svg width="60" height="60" viewBox="0 0 60 60" fill="none" xmlns="http://www.w3.org/2000/svg">
<path d="M30.875 0.833346C28.0458 0.920846 25.8583 3.28335 25.9458 6.08335C25.975 6.78335 26.1208 7.45418 26.4125 8.12501L27.2583 9.99168C27.375 10.3708 27.1708 10.7792 26.7625 10.8958C26.5 11.0417 26.2083 10.8958 26.0041 10.6625L24.7791 9.05835C23.8166 7.83335 22.3583 7.07501 20.8125 7.04585C17.9833 6.98751 15.65 9.23335 15.5916 12.0333C15.5625 13.2583 15.9708 14.425 16.7291 15.4167L17.9541 16.875H17.9833C18.2166 17.2542 18.1291 17.7208 17.8083 17.9542C17.5458 18.1583 17.1958 18.1583 16.9625 17.9542L15.4166 16.7292C14.425 15.9708 13.2291 15.5625 12.0333 15.5917C9.23331 15.65 6.98748 17.9833 7.04581 20.8125C7.07498 22.3583 7.83331 23.8167 9.05831 24.7792L10.7208 26.0625C11.0416 26.3542 11.0416 26.8208 10.6916 27.0833C10.5957 27.1828 10.4713 27.2502 10.3356 27.2763C10.1998 27.3024 10.0593 27.286 9.93331 27.2292H9.90415L8.12498 26.4125C7.45415 26.15 6.78331 25.975 6.08331 25.9458C3.28331 25.8583 0.920813 28.075 0.833313 30.9042C0.833313 33.0042 1.99998 34.9292 3.92498 35.7458L37.1458 50.5333L50.5333 37.1458L35.7458 3.92501C34.9291 1.97085 32.9166 0.745846 30.875 0.833346ZM33.2958 12.7917C34.5208 12.7625 35.6291 13.4625 36.0958 14.5708L44.9916 34.5208L33.4708 23.0292L30.7583 16.875C29.8833 15.0375 31.225 12.85 33.2958 12.7917ZM23.7291 20.8125C24.5166 20.8125 25.2458 21.1042 25.8 21.6875L39.8291 35.7167C40.9958 36.825 41.025 38.6625 39.9166 39.8292C38.75 40.9958 36.9416 41.025 35.7166 39.8292L21.6875 25.8C21.4101 25.5359 21.1882 25.219 21.0348 24.8681C20.8814 24.5171 20.7996 24.139 20.7941 23.756C20.7887 23.373 20.8598 22.9928 21.0031 22.6376C21.1465 22.2824 21.3594 21.9594 21.6291 21.6875C22.1833 21.1042 22.9416 20.8125 23.7291 20.8125ZM15.7958 30.4958C16.175 30.4958 16.5833 30.6125 16.875 30.7583L23.0875 33.5L34.5791 44.9917L14.5708 36.0958C11.5958 34.8125 12.5875 30.4083 15.7958 30.4958ZM54.15 41.7833L41.7833 54.15L44.2625 56.6292C46.4791 58.8167 49.6875 59.6625 52.6916 58.875C54.1709 58.4708 55.5192 57.6879 56.6036 56.6036C57.6879 55.5192 58.4708 54.1709 58.875 52.6917C59.6625 49.6875 58.8166 46.4792 56.6291 44.2625L54.15 41.7833Z" fill="#434242"/>
</svg>
